<svg xmlns="http://www.w3.org/2000/svg" xmlns:xlink="http://www.w3.org/1999/xlink" id="Слой_1" width="71.068" height="68.949" x="0" y="0" enable-background="new 0 0 71.068 68.949" version="1.1" viewBox="0 0 71.068 68.949" xml:space="preserve"><switch><g><rect width="8.286" height="5.405" x="14.882" y="46.408" fill="#FC9" transform="matrix(0.9283 0.3719 -0.3719 0.9283 19.631 -3.5531)"/><path fill="#734D26" d="M9.943,54.131c-0.313,0.635-1.256,0.809-2.106,0.389l0,0c-0.849-0.42-1.285-1.274-0.971-1.908 L30.024,5.738c0.313-0.634,1.257-0.808,2.105-0.389l0,0c0.85,0.42,1.285,1.275,0.972,1.91L9.943,54.131z"/><path fill="#C2C2C2" d="M2.93,5.945c0,0,30.134-2.378,45.293,22.376C48.111,25.05,38.276-5.08,2.93,5.945z"/><path fill="#FC9" d="M18.437,48.939c-0.969,2.351-3.66,3.471-6.011,2.502l-3.702-1.526c-2.351-0.968-2.47-3.129-1.501-5.48l0,0 c0.969-2.351,2.66-4.001,5.011-3.03l3.702,1.523C18.286,43.897,19.406,46.589,18.437,48.939L18.437,48.939z"/><path fill="#5CADD6" d="M17.736,54.357l18.608,8.753c1.74,1.389,4.189,1.515,6.087,0.306l0,0c0.196-0.125,0.396-0.24,0.577-0.393 l20.901-14.506c2.224-1.869,4.983-6.357,0.9-10.168c-2.124-1.981-6.409-1.917-8.633-0.047L38.936,52.699l-16.711-7.857 C21.215,46.997,18.853,52.041,17.736,54.357z"/><path fill="#FC9" d="M16.528,40.805c0,0,3.34,1.539,2.112,5.24c-1.229,3.701-2.85,0-2.85,0l-0.781-2.598l0.4-0.319 L16.528,40.805z"/><path fill="#7DBDDE" d="M61.137,50.441l2.772-1.924c2.224-1.869,4.983-6.357,0.9-10.168c-2.124-1.981-6.409-1.917-8.633-0.047 l-4.687,3.912c1.594-1.281,8.079-5.99,12.249-1.41C67.467,44.896,63.201,48.883,61.137,50.441z"/></g></switch></svg>