<svg xmlns="http://www.w3.org/2000/svg" xmlns:xlink="http://www.w3.org/1999/xlink" id="Слой_1" width="65.983" height="80.136" x="0" y="0" enable-background="new 0 0 65.983 80.136" version="1.1" viewBox="0 0 65.983 80.136" xml:space="preserve"><switch><g><rect width="8.288" height="5.406" x="45.401" y="53.688" fill="#FC9" transform="matrix(-0.7829 0.6222 -0.6222 -0.7829 123.4175 69.714)"/><path fill="#734D26" d="M60.449,59.425c0.564,0.607,1.684,0.485,2.498-0.272l0,0c0.813-0.757,1.016-1.862,0.449-2.472 L21.639,11.788c-0.566-0.608-1.685-0.486-2.498,0.27l0,0c-0.813,0.757-1.016,1.864-0.451,2.472L60.449,59.425z"/><path fill="#C2C2C2" d="M52.152,2.923c0,0-34.661,7.444-43.383,40.351C7.797,39.56,8.731,2.402,52.152,2.923z"/><path fill="#FC9" d="M50.061,56.058c1.6,1.975,4.5,2.277,6.475,0.676l3.109-2.521c1.977-1.601,1.471-3.705-0.131-5.681l0,0 c-1.602-1.976-3.693-3.071-5.668-1.47l-3.109,2.521C48.762,51.183,48.459,54.083,50.061,56.058L50.061,56.058z"/><path fill="#85ADD6" d="M52.283,61.048L36.959,74.761c-1.27,1.83-3.58,2.65-5.744,2.037l0,0c-0.225-0.064-0.447-0.117-0.664-0.213 L6.371,68.67c-2.668-1.152-6.596-4.664-3.775-9.483c1.469-2.506,5.592-3.671,8.259-2.517l20.64,8.858l13.764-12.313 C46.842,54.992,50.549,59.15,52.283,61.048z"/><path fill="#FC9" d="M49.561,47.716c0,0-2.762,2.432-0.523,5.626c2.236,3.194,2.729-0.815,2.729-0.815l0.006-2.713l-0.477-0.19 L49.561,47.716z"/><path fill="#A3C2E0" d="M9.578,69.722L6.371,68.67c-2.668-1.152-6.596-4.664-3.775-9.483c1.469-2.506,5.592-3.671,8.259-2.517 l5.61,2.408c-1.894-0.771-9.457-3.429-12.141,2.153C1.926,66.22,7.152,68.818,9.578,69.722z"/></g></switch></svg>