<svg xmlns="http://www.w3.org/2000/svg" xmlns:xlink="http://www.w3.org/1999/xlink" width="400" height="175.5" x="0" y="0" enable-background="new 0 0 400 175.5" version="1.1" viewBox="0 0 400 175.5" xml:space="preserve"><switch><g><g id="Слой_2" display="none"><rect width="400" height="300" fill="#DFE9F2" display="inline"/></g><g id="Слой_1"><path fill="#F2F6FA" d="M90.334,54.282c3.059-7.134,18.426,16.134,23.721,18.422c8.836,3.817,18.306,7.457,28.696,6.574 c11.749-0.999,11.863,6.312,24.667,4.5c7.916-1.12,12.951-5.066,19.04-11.372c2.785-2.884,2.88-5.964,6.876-7.735 c4.313-1.911,7.637-0.406,11.498,1.639c3.915,2.074,7.789,5.503,11.891,6.973c3.547,1.271,8.511,1.183,12.586,1.389 c9.097,0.46,15.211-6.186,24.025-4.863c8.819,1.324,15.031-0.483,23.486-2.053c11.504-2.136,21.386,5.25,22.012,17.531 c0.772,15.144-19.155,27.963-29.625,35.472c-18.056,12.949-33.671,29.307-55.91,34.743c-24.867,6.078-55.056,1.83-75.587-14.207 c-10.152-7.93-14.014-18.627-18.011-30.326c-3.313-9.699-8.174-18.372-12.014-27.683c-2.341-5.677-6.01-10.229-8.7-16.027 c-2.234-4.816-4.088-10.683-8.15-13.476"/><g><path fill="#5C5C85" d="M153.652,108.132l2.57,35.898l13.4,2.15c0,0-1.786-33.279,6.254-33.504 c8.042-0.223,18.762,33.504,18.762,33.504l12.037-3.574l-16.057-50.029L153.652,108.132z"/><path fill="#336" d="M169.623,146.181c0,0-1.786-33.279,6.254-33.504c0.669-0.018,1.358,0.217,2.057,0.631 l0.001-0.014c0,0-11.643-6.764-24.283-5.162l2.57,35.898L169.623,146.181z" opacity=".46"/><path fill="#39C" d="M190.788,92.633c-4.234,4.347-6.328,6.052-17.285,10.46c0,0-12.121,4.959-19.85,5.039l-13.07-25.707 c-4.407-10.957,0.902-23.412,11.858-27.819l0,0c10.957-4.408,23.412,0.9,27.819,11.857L190.788,92.633z"/><path fill="#7DBDDE" d="M160.215,53.063l0.241,1.433l0,0c0,0,11.363,0.121,16.265,14.11 c4.888,13.949,10.001,27.692,10.029,27.771c1.388-1.082,2.589-2.257,4.037-3.743L180.26,66.464 C176.878,58.057,168.759,52.982,160.215,53.063z"/><path fill="#3A5673" d="M141.998,63.593c0,0,11.553,5.452,19.472-10.51c-6.349,1.096-17.987,8.27-17.987,8.27 S142.748,62.207,141.998,63.593z"/><circle cx="145.757" cy="42.889" r="18.73" fill="#FC9"/><path fill="#798797" d="M154.074,48.997c-7.755-2.526-19.629,8.429-19.825,8.648c3.177,2.481,7.164,4.041,11.508,4.041 c4.351,0,10.238-1.589,14.699-7.19C160.532,54.254,158.825,50.543,154.074,48.997z"/><path fill="#FC9" d="M139.365,53.814c0,0,3.907,1.054,4.25-2.518c0.343-3.571-1.779-4.371-1.779-4.371l-4.964,2.562 C136.871,49.488,136.734,52.298,139.365,53.814z"/><path fill="#604D3A" d="M127.415,46.689c0.476,2.307,1.385,4.451,2.624,6.361 c0.291-0.092,24.724-7.719,33.354-16.421c-0.299-1.924-0.038-0.383-0.875-2.066l-8.964,2.598L127.415,46.689z" opacity=".3"/><path fill="#FC0" d="M165.438,29.488l-2.351,0.985c-4.911-10.354-17.125-15.13-27.804-10.655 c-10.678,4.475-15.838,16.534-11.897,27.295l-2.351,0.985c-0.764,0.32-0.922,1.68-0.353,3.039 c0.569,1.358,1.649,2.198,2.413,1.878l44.404-18.611c0.765-0.32,0.921-1.68,0.353-3.039 C167.282,30.008,166.202,29.167,165.438,29.488z"/><path fill="#267399" d="M139.188,71.897c-0.418,3.458,0.002,7.068,1.394,10.528l13.07,25.707 c7.729-0.08,19.85-5.039,19.85-5.039c0.437-0.176,0.836-0.34,1.245-0.508C166.211,55.815,139.27,71.848,139.188,71.897z" opacity=".39"/><path fill="#FC9" d="M146.801,53.056c-0.171,0-0.337,0.026-0.497,0.063c-0.239,0.034-0.482,0.097-0.718,0.233l-2.714,1.551 c-0.021,0.013-0.035,0.032-0.055,0.045c-0.966,0.187-1.696,1.035-1.696,2.057c0,1.158,0.939,2.096,2.097,2.096 s2.098-0.938,2.098-2.096c0-0.122-0.017-0.237-0.037-0.353c0.386,0.398,0.923,0.646,1.521,0.646c1.171,0,2.123-0.95,2.123-2.123 C148.923,54.005,147.972,53.056,146.801,53.056z"/></g><g><polygon fill="#4D7399" points="239.863 54.013 248.102 71.389 263.775 79.974 259.949 87.115 244.965 81.113 234.01 68.941"/><g><path fill="#336" d="M238.906,91.437l18.967,28.547l-14.193,6.861c0,0-17-26.779-24.768-24.691 c2.613,16.186,6.516,36.193,6.516,36.193l-17.469,1.695l-8.924-52.927L238.906,91.437z"/><path fill="#69C" d="M198.887,87.217c5.302,2.953,7.796,3.986,19.556,5.074c0,0,13.033,1.281,20.463-0.854l5.164-28.373 c1.084-11.76-7.568-22.174-19.328-23.26l0,0c-11.76-1.086-22.173,7.566-23.26,19.326L198.887,87.217z"/><path fill="#A3C2E0" d="M216.853,40.55l0.179,1.442l0,0c0,0-9.198,1.967-12.56,16.405c-3.507,15.065-5.041,25.143-5.584,28.82 l2.595-28.087C202.315,50.105,208.643,42.919,216.853,40.55z"/><path fill="#4D7399" d="M237.32,45.423c0,0-9.509,8.533-21.664-4.496c6.396-0.767,19.602,2.775,19.602,2.775 S236.207,44.311,237.32,45.423z"/><circle cx="227.792" cy="26.662" r="18.73" fill="#FC9"/><path fill="#604D3A" d="M246.455,25.053c0.205,2.346-0.053,4.66-0.693,6.846 c-0.305-0.005-25.896-0.318-36.657-6.186c-0.265-1.929-0.073-0.377,0.247-2.23l9.332-0.078L246.455,25.053z" opacity=".36"/><path fill="#F93" d="M204.625,20.513l2.535,0.271c1.741-11.327,12.078-19.399,23.591-18.168 c11.513,1.23,19.909,11.307,19.214,22.746l2.533,0.271c0.826,0.087,1.365,1.345,1.209,2.81 c-0.156,1.463-0.951,2.578-1.775,2.49l-47.873-5.12c-0.823-0.087-1.363-1.346-1.206-2.811 C203.007,21.541,203.803,20.425,204.625,20.513z"/><path fill="#4D7399" d="M242.391,52.577c1.391,3.193,2.023,6.771,1.68,10.487l-5.164,28.373 c-7.43,2.135-20.463,0.854-20.463,0.854c-0.469-0.045-0.898-0.088-1.338-0.129C211.895,44.903,242.297,52.553,242.391,52.577z" opacity=".39"/><path fill="#FC9" d="M229.702,36.703c0.165-0.049,0.332-0.072,0.495-0.081c0.236-0.037,0.49-0.045,0.755,0.019l3.044,0.709 c0.024,0.005,0.042,0.019,0.066,0.026c0.979-0.097,1.92,0.506,2.213,1.486c0.33,1.11-0.299,2.278-1.41,2.608 c-1.109,0.333-2.277-0.298-2.609-1.408c-0.034-0.116-0.053-0.232-0.066-0.348c-0.256,0.491-0.699,0.883-1.273,1.054 c-1.122,0.335-2.304-0.304-2.639-1.426C227.942,38.22,228.58,37.039,229.702,36.703z"/></g><path fill="#515A65" d="M224.836,40.491l16.98,1.923c0,0-0.293-5.038-5.607-6.547C230.895,34.358,225.053,36.983,224.836,40.491 z"/><path fill="#FC9" d="M236.361,38.252c0,0-3.441,2.128-4.793-1.196c-1.351-3.323,0.453-4.697,0.453-4.697l5.49,1.034 C237.512,33.393,238.447,36.046,236.361,38.252z"/></g><path fill="#999" d="M35.548,171.604l362.435-0.094c0,0,1.071-11.416-12.486-18.195c-1.808-14.459-61.242,3.125-42.579-28.537 c0.89-19.551-8.334-26-1.171-41.213c6.222-19.995-13.75-25-18.25-28.718c-5.875-3.162-9.416-10.521-29.75-4.613 c-20.334,5.91-12.108,14.138-28.828,23.175c-16.721,9.039-9.891,19.128-18.866,33.244 c-11.158,17.553-18.498,10.273-19.854,10.725c-1.355,0.453-32.083-9.941-42.929,12.652c-10.393-6.326-13.104-9.037-25.305-5.875 c-0.452-6.777,2.711-14.912-7.23-20.334s-8.069-2.438-17.542-10.348c-6.178-5.158-11.196-15.558-11.196-15.558 s-4.513-17.398-17.618-17.85c-3.164-6.327-4.335-18.187-15.632-22.253c-11.297-4.066-14.347-0.304-27,19.578 c-24.5,3.675-10.603,42.594-23,48.924c-15.5,0.5-14.5,15.115-13.75,21.75c-19.391,3.199-8.088,27.723-8.088,27.723 s-12.2,3.615-14.912,15.816C16.457,171.604,35.548,171.604,35.548,171.604z"/><path fill="#4D4D4D" d="M86.99,171.59l310.993-0.08c0,0,1.071-11.416-12.486-18.195c-1.808-14.459-28.742-5.875-25.579-37.537 c-0.382-12.724-7-28.745-18.171-32.213c6.222-19.995-13.75-25-18.25-28.718c-5.875-3.162-9.416-10.521-29.75-4.613 c-20.334,5.91-12.108,14.138-28.828,23.175c-16.721,9.039-9.891,19.128-18.866,33.244 c-11.158,17.553-18.498,10.273-19.854,10.725c-1.355,0.453-32.083-9.941-42.929,12.652c0,0-15.09-7.917-23.055,4.416 s-7.965,12.333-7.965,12.333s-9.761-4.334-15.38,3.333c-5.62,7.667-32.62,11.334-32.62,11.334S90.989,163.756,86.99,171.59z"/><path fill="#737373" d="M90.834,141.861c-1.492,1.475-4.348,2.417-2.194,4.932c1.458,1.702,5.485,1.95,7.444,1.318 C103.895,145.59,96.709,139.236,90.834,141.861"/><path fill="#999" d="M318.778,149.631c-2.971,2.937-8.657,4.812-4.369,9.82c2.903,3.391,10.923,3.885,14.824,2.625 C344.787,157.059,330.478,144.404,318.778,149.631"/><path fill="#999" d="M303.924,154.367c-0.867,1.373-2.526,2.25-1.275,4.59c0.847,1.584,3.187,1.814,4.325,1.227 C311.512,157.838,307.337,151.926,303.924,154.367"/><path fill="#999" d="M344.353,147.477c-1.146,1.813-3.337,2.971-1.685,6.062c1.118,2.092,4.209,2.396,5.713,1.619 C354.376,152.061,348.861,144.25,344.353,147.477"/><polygon fill="#734D26" points="332.792 37.129 316.281 78.151 322.001 81.073 336.78 37.129"/><path fill="#999" d="M348.229,157.521c-0.581,0.918-1.691,1.506-0.854,3.072c0.567,1.061,2.134,1.217,2.896,0.822 C353.31,159.846,350.514,155.887,348.229,157.521"/><polygon fill="#563A1D" points="332.359 45.402 333.816 45.943 322.001 81.073 320.918 80.027"/><polygon fill="#412C16" points="328.861 46.896 333.013 48.332 334.48 43.969 330.642 42.472"/><path fill="#737373" d="M81.883,147.452c-0.852,0.842-2.481,1.379-1.252,2.814c0.832,0.972,3.13,1.113,4.249,0.751 C89.337,149.58,85.235,145.954,81.883,147.452"/><g><polygon fill="#FC0" points="343.578 15.754 315.239 36.37 349.113 48.963"/><path fill="#2D2504" d="M349.113,51.463c-0.293,0-0.588-0.051-0.871-0.157l-33.874-12.594c-0.863-0.321-1.48-1.091-1.605-2.003 c-0.126-0.913,0.261-1.82,1.006-2.362l28.339-20.615c0.701-0.51,1.616-0.62,2.417-0.292c0.803,0.328,1.377,1.048,1.52,1.903 l5.535,33.209c0.146,0.88-0.187,1.771-0.874,2.339C350.25,51.267,349.685,51.463,349.113,51.463z M320.479,35.65l25.459,9.465 l-4.16-24.959L320.479,35.65z"/></g><path fill="#999" d="M309.876,77.027c0,0,8.5-2,13.25,4.75c2.416,0.25,8.249,0,9.666,8.917c-1.083-1.583-1.75-7.25-9.25-7.333 C322.209,82.861,321.043,78.11,309.876,77.027z"/><path fill="#FFF" d="M346.044,15.343c-0.143-0.854-0.717-1.575-1.52-1.903 c-0.801-0.327-1.716-0.218-2.417,0.292l-28.339,20.615c-0.745,0.542-1.132,1.449-1.006,2.362 c0.125,0.912,0.742,1.682,1.605,2.003l4.661,1.733l0.002,0c0,0-4.863-1.942-3.113-4.097s28-21.312,28-21.312 s1.363-1.209,2.682,3.641c0,0,0,0,0,0.001L346.044,15.343z" opacity=".2"/><path fill="#2D2504" d="M331.009,35.383L339,37.901c0,0,0.75-1.852,0-2.518s0.084-1.92-0.416-2.252s-2.742-1.168-3.413,0 S332.184,31.883,331.009,35.383z"/></g></g></switch></svg>